<svg viewBox="0 0 32 32" xmlns="http://www.w3.org/2000/svg"><g data-name="Layer 2"><path d="M24 30H8a5 5 0 01-5-5 1 1 0 01.06-.35A13.4 13.4 0 0115.54 16h.92a13.4 13.4 0 0112.48 8.65A1 1 0 0129 25a5 5 0 01-5 5zM5 25.17A3 3 0 008 28h16a3 3 0 003-2.83A11.39 11.39 0 0016.46 18h-.92A11.39 11.39 0 005 25.17zM16 15a6 6 0 116-6 6 6 0 01-6 6zm0-10a4 4 0 104 4 4 4 0 00-4-4z"/><path d="M24 30H8a5 5 0 01-5-5 1 1 0 01.06-.35A13.4 13.4 0 0115.54 16h.92a13.4 13.4 0 0112.48 8.65A1 1 0 0129 25a5 5 0 01-5 5zM5 25.17A3 3 0 008 28h16a3 3 0 003-2.83A11.39 11.39 0 0016.46 18h-.92A11.39 11.39 0 005 25.17z"/></g><path fill="none" d="M0 0h32v32H0z"/></svg>